name ./resultDataOpenSim/trcMotMarkerGrf/sub10/grf-03-01.mot
datacolumns 19
datarows 22
range 0.96400000 1.04800000
endheader

                time	     ground_force_vx	     ground_force_vy	     ground_force_vz	     ground_force_px	     ground_force_py	     ground_force_pz	   l_ground_force_vx	   l_ground_force_vy	   l_ground_force_vz	   l_ground_force_px	   l_ground_force_py	   l_ground_force_pz	     ground_torque_x	     ground_torque_y	     ground_torque_z	   l_ground_torque_x	   l_ground_torque_y	   l_ground_torque_z	
          0.96400000	          0.00000000	          0.00000000	          0.00000000	          0.00000000	          0.00000000	          0.00000000	         22.68378183	        411.38953240	         11.25682161	         -0.02750279	         -0.04999999	         -0.14853478	          0.00000000	          0.00000000	          0.00000000	          0.00000000	         -2.62308887	          0.00000000	
          0.96800000	          0.00000000	          0.00000000	          0.00000000	          0.00000000	          0.00000000	          0.00000000	         25.49621586	        424.24226876	         11.33424223	         -0.02683539	         -0.04999999	         -0.14802999	          0.00000000	          0.00000000	          0.00000000	          0.00000000	         -2.80900952	          0.00000000	
          0.97200000	          0.00000000	          0.00000000	          0.00000000	          0.00000000	          0.00000000	          0.00000000	         28.02729155	        438.37234513	         11.40052004	         -0.02639997	         -0.04999999	         -0.14763141	          0.00000000	          0.00000000	          0.00000000	          0.00000000	         -3.01317205	          0.00000000	
          0.97600000	          0.00000000	          0.00000000	          0.00000000	          0.00000000	          0.00000000	          0.00000000	         30.31754426	        453.62300341	         11.42463935	         -0.02621983	         -0.04999999	         -0.14736011	          0.00000000	          0.00000000	          0.00000000	          0.00000000	         -3.23390982	          0.00000000	
          0.98000000	          0.00000000	          0.00000000	          0.00000000	          0.00000000	          0.00000000	          0.00000000	         32.44071820	        469.81325258	         11.39317755	         -0.02620008	         -0.04999999	         -0.14716250	          0.00000000	          0.00000000	          0.00000000	          0.00000000	         -3.46793411	          0.00000000	
          0.98400000	          0.00000000	          0.00000000	          0.00000000	          0.00000000	          0.00000000	          0.00000000	         34.50296160	        486.81557301	         11.32370840	         -0.02618989	         -0.04999999	         -0.14695335	          0.00000000	          0.00000000	          0.00000000	          0.00000000	         -3.71107811	          0.00000000	
          0.98800000	          0.00000000	          0.00000000	          0.00000000	          0.00000000	          0.00000000	          0.00000000	         36.63245609	        504.61917997	         11.25579628	         -0.02609868	         -0.04999999	         -0.14669873	          0.00000000	          0.00000000	          0.00000000	          0.00000000	         -3.95927973	          0.00000000	
          0.99200000	          0.00000000	          0.00000000	          0.00000000	          0.00000000	          0.00000000	          0.00000000	         38.94954205	        523.28541874	         11.23163511	         -0.02591569	         -0.04999999	         -0.14639412	          0.00000000	          0.00000000	          0.00000000	          0.00000000	         -4.20942260	          0.00000000	
          0.99600000	          0.00000000	          0.00000000	          0.00000000	          0.00000000	          0.00000000	          0.00000000	         41.53891827	        542.79239199	         11.28285509	         -0.02569544	         -0.04999999	         -0.14606344	          0.00000000	          0.00000000	          0.00000000	          0.00000000	         -4.45963979	          0.00000000	
          1.00000000	          0.00000000	          0.00000000	          0.00000000	          0.00000000	          0.00000000	          0.00000000	         44.44422307	        562.96475917	         11.42963500	         -0.02546721	         -0.04999999	         -0.14573769	          0.00000000	          0.00000000	          0.00000000	          0.00000000	         -4.70898742	          0.00000000	
          1.00400000	          0.00000000	          0.00000000	          0.00000000	          0.00000000	          0.00000000	          0.00000000	         47.67740492	        583.59068697	         11.68411951	         -0.02520262	         -0.04999999	         -0.14542474	          0.00000000	          0.00000000	          0.00000000	          0.00000000	         -4.95674003	          0.00000000	
          1.00800000	          0.00000000	          0.00000000	          0.00000000	          0.00000000	          0.00000000	          0.00000000	         51.23623671	        604.55355084	         12.04851672	         -0.02490100	         -0.04999999	         -0.14510760	          0.00000000	          0.00000000	          0.00000000	          0.00000000	         -5.20161217	          0.00000000	
          1.01200000	          0.00000000	          0.00000000	          0.00000000	          0.00000000	          0.00000000	          0.00000000	         55.12256000	        625.81191828	         12.51662968	         -0.02458044	         -0.04999999	         -0.14477890	          0.00000000	          0.00000000	          0.00000000	          0.00000000	         -5.44112937	          0.00000000	
          1.01600000	          0.00000000	          0.00000000	          0.00000000	          0.00000000	          0.00000000	          0.00000000	         59.34119448	        647.28722610	         13.07850900	         -0.02424469	         -0.04999999	         -0.14445345	          0.00000000	          0.00000000	          0.00000000	          0.00000000	         -5.67139302	          0.00000000	
          1.02000000	          0.00000000	          0.00000000	          0.00000000	          0.00000000	          0.00000000	          0.00000000	         63.89351759	        668.81094868	         13.71590842	         -0.02386972	         -0.04999999	         -0.14413998	          0.00000000	          0.00000000	          0.00000000	          0.00000000	         -5.88743262	          0.00000000	
          1.02400000	          0.00000000	          0.00000000	          0.00000000	          0.00000000	          0.00000000	          0.00000000	         68.78813885	        690.18377293	         14.40900877	         -0.02343430	         -0.04999999	         -0.14382857	          0.00000000	          0.00000000	          0.00000000	          0.00000000	         -6.08408508	          0.00000000	
          1.02800000	          0.00000000	          0.00000000	          0.00000000	          0.00000000	          0.00000000	          0.00000000	         74.04736446	        711.25486698	         15.15466191	         -0.02295311	         -0.04999999	         -0.14350321	          0.00000000	          0.00000000	          0.00000000	          0.00000000	         -6.25708865	          0.00000000	
          1.03200000	          0.00000000	          0.00000000	          0.00000000	          0.00000000	          0.00000000	          0.00000000	         79.69322466	        731.90776855	         15.95738849	         -0.02246169	         -0.04999999	         -0.14316083	          0.00000000	          0.00000000	          0.00000000	          0.00000000	         -6.40400194	          0.00000000	
          1.03600000	          0.00000000	          0.00000000	          0.00000000	          0.00000000	          0.00000000	          0.00000000	         85.72291351	        751.99538333	         16.80439029	         -0.02197536	         -0.04999999	         -0.14281546	          0.00000000	          0.00000000	          0.00000000	          0.00000000	         -6.52466153	          0.00000000	
          1.04000000	          0.00000000	          0.00000000	          0.00000000	          0.00000000	          0.00000000	          0.00000000	         92.09300065	        771.33675265	         17.66043887	         -0.02147318	         -0.04999999	         -0.14247362	          0.00000000	          0.00000000	          0.00000000	          0.00000000	         -6.62109363	          0.00000000	
          1.04400000	          0.00000000	          0.00000000	          0.00000000	          0.00000000	          0.00000000	          0.00000000	         98.73669558	        789.75724616	         18.47529138	         -0.02093032	         -0.04999999	         -0.14212787	          0.00000000	          0.00000000	          0.00000000	          0.00000000	         -6.69697793	          0.00000000	
          1.04800000	          0.00000000	          0.00000000	          0.00000000	          0.00000000	          0.00000000	          0.00000000	        105.59568209	        807.09021969	         19.18627465	         -0.02034218	         -0.04999999	         -0.14176431	          0.00000000	          0.00000000	          0.00000000	          0.00000000	         -6.75684268	          0.00000000	
